<svg xmlns="http://www.w3.org/2000/svg" width="100%" height="100%" viewBox="0 0 146 16" fill="none" preserveAspectRatio="xMidYMid meet" aria-hidden="true" role="img">
<path d="M12.361 8.12329C11.5098 5.33739 10.8633 3.57454 9.89617 2.1999C8.88953 0.754453 7.42891 0.119629 5.69443 0.119629C1.70488 0.119629 0 2.47092 0 6.47763V15.5165H4.50521V6.17731C4.50521 4.85151 4.93205 4.21913 5.81533 4.21913C6.69861 4.21913 7.18466 4.97359 8.2209 8.40652L10.3526 15.5165H15.8324L17.4756 0.451691H13.1826L12.361 8.12329Z" fill="#FFFFFF"></path>
<path d="M57.5118 0.119629C55.9599 0.119629 54.5288 0.842351 53.5222 2.19746C52.7771 3.25468 52.3922 3.97008 51.4226 7.01968V6.47763C51.4226 3.25468 50.3271 0.119629 46.6114 0.119629C44.8769 0.119629 43.4138 0.752011 42.4097 2.19746C41.6152 3.32549 41.0354 4.71722 40.3841 6.7218L39.7006 0.451691H35.4076L37.0508 15.5165H41.9532L44.0849 8.40652C45.1212 4.97115 45.6368 4.21913 46.4905 4.21913C47.2825 4.21913 47.8006 5.00289 47.8006 6.17731C47.8006 9.82267 47.771 13.468 47.771 15.5165H52.856L54.9878 8.40652C56.024 4.97115 56.5397 4.21913 57.3933 4.21913C58.1853 4.21913 58.7034 5.00289 58.7034 6.17731V15.5165H63.2087V6.47763C63.2087 2.47092 61.5038 0.119629 57.5142 0.119629H57.5118Z" fill="#FFFFFF"></path>
<path d="M26.3972 0C21.7094 0 18.1171 3.58431 18.1171 7.98413C18.1171 12.3839 21.739 15.9976 26.3972 15.9976C31.0554 15.9976 34.7094 12.3815 34.7094 7.98413C34.7094 3.58675 31.0554 0 26.3972 0ZM26.3972 12.1422C24.1446 12.1422 22.6223 10.3354 22.6223 7.98413C22.6223 5.63284 24.1446 3.85533 26.3972 3.85533C28.6498 3.85533 30.1721 5.63284 30.1721 7.98413C30.1721 10.4551 28.6202 12.1422 26.3972 12.1422Z" fill="#FFFFFF"></path>
<path d="M73.0703 0C68.3825 0 64.7902 3.58431 64.7902 7.98413C64.7902 12.3839 68.4121 15.9976 73.0703 15.9976C77.7285 15.9976 81.3825 12.3815 81.3825 7.98413C81.3825 3.58675 77.7285 0 73.0703 0ZM73.0703 12.1422C70.8177 12.1422 69.2954 10.3354 69.2954 7.98413C69.2954 5.63284 70.8177 3.85533 73.0703 3.85533C75.3229 3.85533 76.8452 5.63284 76.8452 7.98413C76.8452 10.4551 75.2933 12.1422 73.0703 12.1422Z" fill="#FFFFFF"></path>
<path d="M144.798 11.6978C144.137 12.423 143.38 12.9699 142.551 13.3289C141.65 13.7171 140.597 13.91 139.417 13.91C138.238 13.91 137.192 13.6341 136.279 13.0847C135.359 12.5353 134.695 11.7931 134.31 10.8775L134.169 10.5478L134.52 10.6235C135.467 10.8213 136.545 10.8506 137.717 10.7139C138.887 10.5723 140.049 10.2133 141.162 9.642C142.267 9.07554 143.195 8.26003 143.915 7.22723C144.515 6.36045 144.855 5.40577 144.922 4.39005C144.991 3.37922 144.774 2.47093 144.285 1.69205C143.794 0.920495 143.052 0.407752 142.072 0.175798C141.551 0.0561577 141.024 -0.00244141 140.496 -0.00244141C139.526 -0.00244141 138.549 0.200214 137.579 0.5982C136.079 1.21837 134.791 2.20968 133.762 3.54769C132.734 4.88814 132.109 6.42881 131.907 8.1233C131.749 9.59316 131.971 10.9458 132.576 12.1349C133.175 13.3215 134.086 14.2738 135.277 14.9574C135.874 15.3017 136.526 15.563 137.224 15.7339C137.917 15.9048 138.665 15.9951 139.449 15.9951C142.119 15.9951 144.327 15.1405 146.005 13.4558L144.801 11.693L144.798 11.6978ZM133.994 8.37967L134.014 8.23318C134.206 6.9147 134.715 5.72806 135.526 4.70258C136.341 3.68442 137.266 2.92507 138.28 2.45628C139.309 1.97772 140.241 1.84343 141.048 2.06074C141.734 2.25851 142.232 2.59545 142.524 3.06425C142.817 3.5306 142.916 4.06531 142.815 4.65131C142.716 5.22509 142.45 5.77446 142.015 6.28964C141.396 7.04654 140.589 7.63742 139.617 8.04761C138.648 8.45536 137.656 8.68488 136.666 8.73859C136.496 8.74592 136.331 8.7508 136.168 8.7508C135.388 8.7508 134.705 8.64581 134.135 8.43827L133.994 8.38212V8.37967Z" fill="#FFFFFF"></path>
<path d="M104.145 0.45166L98.9568 15.5165H96.7831L92.6801 3.6038L88.577 15.5165H86.4034L81.2147 0.45166H83.3859L87.4914 12.3644L91.5945 0.45166H93.7657L97.8687 12.3644L101.972 0.45166H104.145Z" fill="#FFFFFF"></path>
<path d="M132.003 0.45166L126.812 15.5165H124.641L119.452 0.45166H121.624L125.727 12.3644L129.83 0.45166H132.003Z" fill="#FFFFFF"></path>
<path d="M117.93 0.451686C117.93 0.451686 116.566 0.170898 114.767 0.170898C111.658 0.170898 106.993 1.00594 104.649 5.55469C101.969 10.7554 104.382 15.4994 108.587 15.4994H108.831C110.178 15.4994 112.934 15.3603 115.672 10.6797C115.712 10.6113 115.739 10.5478 115.754 10.4868V15.5141H117.928V0.451686H117.93ZM113.8 9.60536C111.604 13.3533 109.731 13.3533 108.833 13.3533H108.589C107.321 13.3533 106.623 12.655 106.26 12.069C105.88 11.4561 105.683 10.6723 105.692 9.80313C105.705 8.76788 106.013 7.63496 106.583 6.5289C107.4 4.94184 108.606 3.8309 110.272 3.1326C111.557 2.59055 113.072 2.31709 114.769 2.31709C115.125 2.31709 115.458 2.3293 115.759 2.34883C115.724 4.0653 115.384 6.90491 113.802 9.6078L113.8 9.60536Z" fill="#FFFFFF"></path>
</svg>