<svg width="108" height="46" viewBox="0 0 108 46" fill="none" xmlns="http://www.w3.org/2000/svg">
<path d="M96.4167 0.507812L91.4584 17.3348L87.3744 4.48402C86.6239 2.11666 84.4242 0.511796 81.9411 0.511796C79.4539 0.511796 77.2543 2.12464 76.5037 4.49599L72.4117 17.4666L67.4535 0.511796H56.3672L65.9364 28.2973C66.7269 30.5968 68.8946 32.1418 71.3259 32.1418H72.6553C75.1504 32.1418 77.3541 30.521 78.0966 28.1416L81.9331 15.8378L85.7177 28.1217C86.4522 30.513 88.6639 32.1418 91.163 32.1418H92.5323C94.9675 32.1418 97.1353 30.5928 97.9257 28.2894L107.431 0.515792H96.4167V0.507812Z" fill="#000000"/>
<path d="M23.5259 41.1247C23.5259 41.9351 23.9491 42.466 24.508 42.7655C24.7475 42.8932 25.023 42.9571 25.3344 42.9571C26.1567 42.9571 26.7396 42.486 26.9552 41.8592H25.0789V40.5777H28.4602C28.4842 40.7734 28.4962 40.961 28.4962 41.1366C28.4962 42.1267 28.1169 42.9092 27.5979 43.4282C27.0789 43.9472 26.3045 44.3344 25.3144 44.3344C24.3124 44.3344 23.5019 43.9312 22.963 43.4082C22.4281 42.8892 22.0049 42.1107 22.0049 41.1247C22.0049 40.1506 22.4321 39.3681 22.959 38.8531C23.49 38.3341 24.2964 37.9189 25.2865 37.9189C25.9811 37.9189 26.6039 38.0826 27.1508 38.406C27.6977 38.7294 28.073 39.1805 28.2806 39.7634H26.524C26.2206 39.4599 25.8094 39.3042 25.2825 39.3042C24.2884 39.3003 23.5259 40.1186 23.5259 41.1247Z" fill="#000000"/>
<path d="M43.904 44.1947L43.4728 43.0769H40.8899L40.4587 44.1947H38.8379L41.4049 38.0547H42.9538L45.5208 44.1947H43.904ZM42.1793 39.7594L41.4009 41.7754H42.9658L42.1793 39.7594Z" fill="#000000"/>
<path d="M63.3907 44.1947H61.9256V40.9251L60.201 44.1947H59.5063L57.7737 40.9051V44.1947H56.3086V38.0547H57.7937L59.8536 41.9471L61.9136 38.0547H63.3867V44.1947H63.3907Z" fill="#000000"/>
<path d="M79.4994 44.1947H74.7168V38.0547H79.4715V39.3561H76.2298V40.5099H79.208V41.7395H76.2298V42.8932H79.4994V44.1947Z" fill="#000000"/>
<path d="M92.2741 39.7592C92.2741 40.0706 92.4738 40.2103 92.7692 40.2742L94.0427 40.5576C94.9888 40.7692 95.7274 41.2682 95.7274 42.3461C95.7274 43.4 95.0088 43.9709 94.1704 44.2064C93.867 44.2903 93.5397 44.3342 93.2003 44.3342C92.1025 44.3342 91.2481 43.931 90.809 43.2563C90.6573 43.0208 90.5575 42.7613 90.5176 42.4739H92.1903C92.3739 42.8651 92.7612 43.0807 93.2842 43.0807C93.7552 43.0807 94.1904 42.8811 94.1904 42.4499C94.1904 42.1026 93.9588 41.9788 93.6235 41.9109L92.342 41.6355C91.2402 41.384 90.6932 40.7932 90.6932 39.859C90.6932 38.5975 91.8031 37.9268 93.1205 37.9268C94.4579 37.9268 95.428 38.5974 95.6595 39.7033H94.0666C93.899 39.3839 93.5397 39.1444 93.1005 39.1444C92.6694 39.1364 92.2741 39.36 92.2741 39.7592Z" fill="#000000"/>
<path d="M16.8869 0.763672V32.749C16.8869 41.2483 12.6193 45.5 4.084 45.5H0V35.0685H2.37135C3.18177 35.0685 3.76062 34.9008 4.11194 34.5734C4.45926 34.2421 4.63491 33.7071 4.63491 32.9726V0.763672H16.8869Z" fill="#000000"/>
<path d="M32.3123 3.17476V4.71973C32.2644 4.75965 32.2444 4.78361 32.1965 4.82353C31.1107 4.70377 29.9849 4.59198 28.5956 4.44028C29.8092 5.91738 30.8711 7.20686 31.933 8.49234C31.8692 8.58416 26.4638 8.76781 26.4638 8.76781C27.5177 9.96546 28.3561 10.9236 29.3262 12.0214C27.7932 12.3528 26.4797 12.6282 24.8469 12.9795C26.1883 14.1253 27.378 15.1393 28.8391 16.3849C26.839 16.8919 25.1384 17.327 23.1662 17.83C24.7751 19.0556 26.1444 20.1056 27.7532 21.3352C26.1963 21.8222 23.6373 22.8003 23.5974 22.9041C24.9148 23.6506 26.2282 24.4052 27.5417 25.1677C27.5217 25.2675 25.3779 26.1577 24.0166 26.5729C25.2422 27.3833 26.2961 28.0899 27.3899 28.8085C26.855 29.2397 26.2841 29.6229 25.6773 29.9623C24.0006 28.7167 22.6712 27.016 21.6612 24.8603C20.5394 22.449 19.9805 19.6026 19.9805 16.333C19.9805 13.0594 20.5394 10.217 21.6612 7.80569C22.787 5.39441 24.32 3.55401 26.2721 2.2845C27.7453 1.32638 29.3541 0.735538 31.1027 0.5L31.2464 0.667677C31.5857 1.15472 31.8772 1.62579 32.0887 2.09687C32.2444 2.42822 32.3123 2.7995 32.3123 3.17476Z" fill="#000000"/>
<path d="M41.4463 0.763672V2.95537V5.01135V5.36265C42.1449 6.6162 42.8236 8.0973 42.7277 9.00751C42.5122 8.92767 42.3086 8.84783 42.097 8.77597C41.8016 8.67217 41.5021 8.55241 41.1189 8.41268C41.6459 9.59037 41.9253 10.6004 41.3305 11.7382C40.5001 11.4906 39.6378 11.2391 38.5719 10.9277C39.2945 12.2172 39.9252 13.351 40.552 14.4808C40.4881 14.5407 36.3482 13.9339 36.3482 13.9339C36.987 14.9878 37.494 15.8301 38.0808 16.8002C36.8632 16.8442 35.8213 16.8641 34.5318 16.908C35.3901 17.9699 36.1606 18.9081 37.0948 20.0539C35.5658 20.1617 32.6874 20.493 32.6874 20.493C33.6934 21.5988 34.5597 22.553 35.5778 23.6668C34.3242 23.8225 32.2363 24.2137 32.1924 24.2816C33.0906 25.0481 33.9809 25.7986 34.8831 26.5571C34.8632 26.609 34.0847 26.7887 33.2423 26.9484C34.1885 28.653 35.3861 30.0223 36.8313 31.0403C36.9471 31.1242 37.0628 31.204 37.1866 31.2838C37.2425 31.3198 37.3024 31.3597 37.3583 31.3956C37.6058 31.2839 37.8413 31.1681 38.0769 31.0363C39.546 30.206 40.6678 29.0802 41.4423 27.643C41.4423 29.9904 43.3425 31.8907 45.6899 31.8907H49.3867C51.7341 31.8907 53.6344 29.9904 53.6344 27.643V3.70192C53.6344 2.0811 52.3209 0.767668 50.7001 0.767668H41.4463V0.763672Z" fill="#000000"/>
</svg>
